HIERARCHY
ROOT Hips
{
 OFFSET 0.000000 0.000000 0.000000
 CHANNELS 6 Xposition Yposition Zposition Yrotation Xrotation Zrotation
 JOINT Chest
 {
  OFFSET 0.000000 9.585900 0.002600
  CHANNELS 3 Yrotation Xrotation Zrotation
  JOINT Chest2
  {
   OFFSET 0.000000 9.601200 -0.005300
   CHANNELS 3 Yrotation Xrotation Zrotation
   JOINT Chest3
   {
    OFFSET 0.000000 9.561800 0.000000
    CHANNELS 3 Yrotation Xrotation Zrotation
    JOINT Chest4
    {
     OFFSET 0.000000 9.552100 0.000000
     CHANNELS 3 Yrotation Xrotation Zrotation
     JOINT Neck
     {
      OFFSET 0.000000 14.453000 0.000000
      CHANNELS 3 Yrotation Xrotation Zrotation
      JOINT Head
      {
       OFFSET 0.000000 8.936500 -0.011300
       CHANNELS 3 Yrotation Xrotation Zrotation
       End Site
       {
        OFFSET 0.000000 17.073600 -0.006000
       }
      }
     }
     JOINT RightCollar
     {
      OFFSET -2.921100 9.558500 0.000000
      CHANNELS 3 Yrotation Xrotation Zrotation
      JOINT RightShoulder
      {
       OFFSET -13.519700 0.000000 0.000000
       CHANNELS 3 Yrotation Xrotation Zrotation
       JOINT RightElbow
       {
        OFFSET 0.000000 -29.696600 0.000000
        CHANNELS 3 Yrotation Xrotation Zrotation
        JOINT RightWrist
        {
         OFFSET 0.000000 -24.004700 0.000000
         CHANNELS 3 Yrotation Xrotation Zrotation
         End Site
         {
          OFFSET 0.000000 -17.728500 0.000000
         }
        }
       }
      }
     }
     JOINT LeftCollar
     {
      OFFSET 2.921100 9.558500 0.000000
      CHANNELS 3 Yrotation Xrotation Zrotation
      JOINT LeftShoulder
      {
       OFFSET 13.519700 0.000000 0.000000
       CHANNELS 3 Yrotation Xrotation Zrotation
       JOINT LeftElbow
       {
        OFFSET 0.000000 -29.696600 0.000000
        CHANNELS 3 Yrotation Xrotation Zrotation
        JOINT LeftWrist
        {
         OFFSET 0.000000 -24.004700 0.000000
         CHANNELS 3 Yrotation Xrotation Zrotation
         End Site
         {
          OFFSET 0.000000 -17.728500 0.000000
         }
        }
       }
      }
     }
    }
   }
  }
 }
 JOINT RightHip
 {
  OFFSET -7.771700 -0.012900 -0.001300
  CHANNELS 3 Yrotation Xrotation Zrotation
  JOINT RightKnee
  {
   OFFSET 0.000000 -40.869800 0.001200
   CHANNELS 3 Yrotation Xrotation Zrotation
   JOINT RightAnkle
   {
    OFFSET 0.000000 -39.717900 0.002100
    CHANNELS 3 Yrotation Xrotation Zrotation
    JOINT RightToe
    {
     OFFSET 0.000000 -4.965400 11.033500
     CHANNELS 3 Yrotation Xrotation Zrotation
     End Site
     {
      OFFSET 0.000000 -1.423100 5.872300
     }
    }
   }
  }
 }
 JOINT LeftHip
 {
  OFFSET 7.771700 -0.012900 -0.001300
  CHANNELS 3 Yrotation Xrotation Zrotation
  JOINT LeftKnee
  {
   OFFSET 0.000000 -40.869800 0.001200
   CHANNELS 3 Yrotation Xrotation Zrotation
   JOINT LeftAnkle
   {
    OFFSET 0.000000 -39.717900 0.002100
    CHANNELS 3 Yrotation Xrotation Zrotation
    JOINT LeftToe
    {
     OFFSET 0.000000 -4.965400 11.033500
     CHANNELS 3 Yrotation Xrotation Zrotation
     End Site
     {
      OFFSET 0.000000 -1.423100 5.872300
     }
    }
   }
  }
 }
}
MOTION
Frames: 13
Frame Time: 0.008333
19.477687 49.856980 56.725723 173.014642 -31.121570 -5.796476 7.055802 21.283462 7.491683 0.883683 3.097511 0.767975 1.438954 5.047875 1.297252 5.868626 18.028366 5.430989 -2.424113 16.456675 1.387566 -4.969512 -5.210172 3.379179 -0.581510 -5.278022 -9.069975 2.192458 -5.330385 -7.272793 -159.001820 -50.766566 163.623480 4.545904 -3.235921 78.450205 -11.066332 -5.485405 1.515951 4.303415 -11.956083 3.519777 118.182722 -60.256605 -139.111976 0.831624 20.619535 -92.454411 2.290784 -49.672666 7.864644 -126.435583 84.216810 -115.001396 -1.367346 -13.884786 -2.685122 -0.055742 0.897134 -0.027256 -8.258136 -53.305903 15.346645 -155.416963 80.522791 -162.970545 0.520193 -17.684726 7.764188 -0.289161 -0.556256 -0.042827
19.477514 49.855955 56.731518 172.995385 -31.099490 -5.765745 7.051934 21.312283 7.493026 0.886450 3.093851 0.764053 1.421847 5.107410 1.325809 5.866004 17.965245 5.375982 -2.420774 16.456080 1.386183 -4.959024 -5.159758 3.395653 -0.533767 -5.223590 -9.032473 2.313331 -5.636833 -7.361412 -158.126485 -50.519554 163.018619 4.272396 -3.218638 78.230917 -11.086967 -5.437658 1.542742 4.333991 -12.178323 3.450861 117.557036 -59.739659 -138.763338 1.330105 20.655483 -92.226220 2.275036 -49.708167 7.852991 -126.578199 84.212568 -115.158562 -1.347601 -13.874098 -2.693915 -0.071177 0.886661 -0.038894 -8.207473 -53.333356 15.319519 -155.370869 80.525807 -162.927394 0.506212 -17.695320 7.751442 -0.285011 -0.545697 -0.037824
19.475402 49.855779 56.737460 172.977315 -31.080164 -5.737544 7.050335 21.331958 7.490929 0.871402 3.142632 0.789459 1.437123 5.048895 1.286863 5.849814 18.005693 5.393686 -2.411948 16.424818 1.365060 -4.955390 -5.119870 3.411468 -0.476158 -5.196512 -9.016179 2.433822 -5.946558 -7.437061 -157.290619 -50.294183 162.439659 4.036598 -3.198998 77.985086 -11.093798 -5.418443 1.554608 4.354914 -12.403276 3.380227 116.987880 -59.248473 -138.444477 1.846885 20.673624 -91.965004 2.271649 -49.739139 7.837457 -126.699337 84.211321 -115.290669 -1.332768 -13.870940 -2.700860 -0.079283 0.884652 -0.045455 -8.129445 -53.358211 15.283975 -155.329507 80.531626 -162.887449 0.478591 -17.711295 7.759957 -0.285661 -0.532376 -0.038767
19.469804 49.856136 56.743633 172.965656 -31.059189 -5.706058 7.040642 21.350082 7.482732 0.870264 3.147453 0.790632 1.433121 5.068580 1.295743 5.831132 18.053057 5.415327 -2.407565 16.386535 1.333271 -4.949448 -5.149643 3.393748 -0.430048 -5.260755 -9.066541 2.574466 -6.205611 -7.459513 -156.489739 -50.084550 161.884140 3.835640 -3.177042 77.729638 -11.093629 -5.437197 1.541019 4.362397 -12.629629 3.311578 116.493818 -58.791658 -138.166042 2.383568 20.667140 -91.670939 2.290865 -49.768069 7.803330 -126.791891 84.211023 -115.390002 -1.336037 -13.889737 -2.687974 -0.071926 0.902067 -0.059411 -8.003407 -53.387427 15.204854 -155.295601 80.539779 -162.835357 0.446937 -17.744746 7.758969 -0.287067 -0.506846 -0.025742
19.466000 49.858403 56.749501 172.945645 -31.046655 -5.695275 7.049137 21.371082 7.503206 0.874079 3.133675 0.778278 1.424868 5.104979 1.319607 5.821159 18.068612 5.419605 -2.408497 16.444694 1.365211 -4.944335 -5.179134 3.365744 -0.383798 -5.237919 -9.061116 2.696177 -6.508533 -7.510942 -155.719172 -49.884913 161.347159 3.668734 -3.145904 77.474440 -11.105823 -5.411498 1.538284 4.359887 -12.859686 3.245230 116.084616 -58.376098 -137.939138 2.944048 20.631798 -91.342186 2.289948 -49.788575 7.804380 -126.805628 84.210818 -115.400469 -1.338714 -13.889056 -2.696807 -0.071161 0.903850 -0.058200 -7.934136 -53.400739 15.174500 -155.323481 80.547320 -162.846670 0.432012 -17.794610 7.721751 -0.290685 -0.471210 0.005663
19.460815 49.860672 56.757398 172.903389 -31.022751 -5.681099 7.079267 21.367394 7.524627 0.877178 3.130076 0.773109 1.421296 5.116890 1.328362 5.817690 18.088486 5.433202 -2.411272 16.458175 1.366354 -4.950543 -5.132762 3.377777 -0.348052 -5.196550 -9.043076 2.818149 -6.808313 -7.556697 -154.982333 -49.697522 160.829671 3.524375 -3.102383 77.227862 -11.130020 -5.358674 1.542536 4.358958 -13.096119 3.179261 115.741221 -58.003923 -137.754238 3.527167 20.562081 -90.977059 2.257861 -49.823106 7.828854 -126.906256 84.233419 -115.504877 -1.349688 -13.860344 -2.733432 -0.061590 0.885062 -0.047815 -7.900293 -53.425114 15.183125 -155.434666 80.556854 -162.959043 0.408935 -17.824758 7.710491 -0.292116 -0.445733 0.020599
19.452959 49.865559 56.762396 172.884793 -31.015342 -5.675642 7.092513 21.387254 7.548225 0.871846 3.135447 0.777928 1.427699 5.094033 1.307909 5.820388 18.125594 5.462977 -2.415531 16.475994 1.370052 -4.958965 -5.099387 3.385204 -0.332392 -5.207190 -9.057578 2.954595 -7.055301 -7.558013 -154.294842 -49.524957 160.340790 3.384497 -3.049790 76.994048 -11.162290 -5.297904 1.548620 4.362986 -13.339033 3.113322 115.432684 -57.670611 -137.587358 4.122848 20.462753 -90.584252 2.255352 -49.834165 7.834138 -126.933380 84.247119 -115.528253 -1.372972 -13.859185 -2.739309 -0.048663 0.886685 -0.044104 -7.831899 -53.435537 15.139799 -155.617070 80.573933 -163.110630 0.371284 -17.857432 7.694341 -0.290843 -0.434730 0.011500
19.442614 49.871381 56.767288 172.870717 -31.006504 -5.671271 7.104402 21.412194 7.574925 0.871638 3.133238 0.775103 1.427516 5.100400 1.310352 5.823037 18.137126 5.468191 -2.426651 16.461131 1.357085 -4.969759 -5.019767 3.415018 -0.305397 -5.168120 -9.029712 3.061205 -7.338514 -7.600314 -153.667413 -49.367263 159.890683 3.241376 -2.999764 76.770882 -11.200544 -5.233422 1.556377 4.363471 -13.588261 3.047889 115.142738 -57.366977 -137.420534 4.709267 20.351687 -90.175878 2.252712 -49.845061 7.834186 -126.963451 84.261942 -115.554557 -1.392481 -13.856837 -2.747861 -0.029376 0.886981 -0.036667 -7.756948 -53.441837 15.074314 -155.886368 80.602523 -163.336978 0.342809 -17.911499 7.641427 -0.286562 -0.422676 0.004299
19.430278 49.877762 56.772569 172.867281 -30.992419 -5.672654 7.109163 21.417580 7.591376 0.866880 3.145878 0.783221 1.434607 5.136583 1.330713 5.818943 18.120937 5.450909 -2.432805 16.504310 1.377063 -4.987244 -4.989696 3.426650 -0.279653 -5.132851 -8.995721 3.157597 -7.601482 -7.646754 -153.106170 -49.217922 159.485385 3.096982 -2.964965 76.548433 -11.242014 -5.166064 1.564746 4.349028 -13.841654 2.986170 114.869589 -57.083963 -137.241535 5.262732 20.243963 -89.764116 2.234249 -49.857710 7.832109 -127.020477 84.282279 -115.611006 -1.399000 -13.851214 -2.755956 -0.013456 0.884101 -0.033299 -7.672348 -53.450293 14.987668 -156.206939 80.641612 -163.599207 0.320717 -17.983947 7.546323 -0.301196 -0.363892 0.069717
19.411573 49.885608 56.774800 172.856253 -30.992293 -5.638976 7.109247 21.426348 7.566463 0.870801 3.170651 0.798842 1.430341 5.115572 1.315867 5.823576 18.135306 5.461200 -2.426945 16.576867 1.411371 -5.007619 -4.955162 3.440464 -0.250493 -5.091095 -8.956932 3.254760 -7.827487 -7.684165 -152.616551 -49.069316 159.124070 2.949264 -2.953864 76.306764 -11.279031 -5.070357 1.580836 4.309557 -14.094625 2.932807 114.616440 -56.821827 -137.046876 5.769988 20.149743 -89.355601 2.260180 -49.852867 7.768396 -127.175943 84.311437 -115.767547 -1.384717 -13.855935 -2.762470 -0.024376 0.885534 -0.029265 -7.408299 -53.467818 14.706994 -156.713054 80.691987 -163.955042 0.326464 -18.031806 7.496910 -0.307537 -0.345615 0.049171
19.395557 49.894757 56.776679 172.855182 -30.996030 -5.631755 7.112792 21.452654 7.574018 0.871936 3.176215 0.801284 1.432121 5.124039 1.319734 5.818700 18.124470 5.454241 -2.429181 16.592538 1.416198 -5.021802 -4.856698 3.473666 -0.214819 -5.050560 -8.920505 3.346523 -8.032709 -7.722388 -152.194172 -48.924814 158.804659 2.790426 -2.972049 76.029689 -11.313921 -4.976485 1.594474 4.246753 -14.342128 2.888064 114.374571 -56.581250 -136.839060 6.224921 20.080496 -88.942550 2.263663 -49.843483 7.744127 -127.232665 84.329292 -115.823480 -1.384556 -13.858591 -2.763421 -0.021165 0.886656 -0.027551 -7.271523 -53.470815 14.556691 -157.053045 80.727942 -164.212906 0.310059 -18.049589 7.479767 -0.295663 -0.352789 0.020254
19.380948 49.904244 56.778893 172.865934 -30.995754 -5.640955 7.117136 21.472309 7.596059 0.883254 3.210158 0.816111 1.434361 5.133433 1.324133 5.809513 18.111052 5.450601 -2.448751 16.582779 1.407888 -5.035928 -4.762487 3.506725 -0.211887 -5.068666 -8.923809 3.454644 -8.197620 -7.729054 -151.818951 -48.794703 158.521170 2.616768 -3.012188 75.711514 -11.360125 -4.916051 1.599069 4.176275 -14.582466 2.847973 114.132862 -56.357839 -136.623037 6.627016 20.040652 -88.516257 2.244710 -49.835472 7.735007 -127.299336 84.349539 -115.880234 -1.401849 -13.861244 -2.771282 -0.002722 0.884702 -0.024097 -7.216917 -53.464587 14.483195 -157.435302 80.769425 -164.552327 0.255932 -18.070285 7.454517 -0.279133 -0.351417 0.012728
19.366173 49.913678 56.781158 172.862747 -30.992099 -5.639955 7.129927 21.488768 7.609602 0.885342 3.217293 0.817546 1.440523 5.151312 1.332615 5.836567 18.160964 5.487858 -2.481266 16.561956 1.398611 -5.054561 -4.716273 3.531079 -0.223803 -5.136649 -8.947179 3.557709 -8.353897 -7.729413 -151.460629 -48.683213 158.254552 2.430781 -3.053012 75.352664 -11.420317 -4.914979 1.593749 4.113429 -14.814129 2.810644 113.899268 -56.153142 -136.412308 6.989131 20.014223 -88.076647 2.242418 -49.833734 7.725211 -127.313661 84.366214 -115.888172 -1.421256 -13.860168 -2.781732 0.017999 0.882720 -0.013464 -7.043795 -53.470791 14.303161 -158.061094 80.827416 -165.054792 0.187887 -18.106445 7.423040 -0.264453 -0.331241 -0.001562
